#N canvas 0 96 1920 984 10;
#X obj 180 227 r nui_num_encoders;
#X obj 180 250 print num encoders;
#X obj 179 177 r nui_num_buttons;
#X obj 179 200 print num buttons;
#X obj 241 426 r nui_encoder;
#X obj 45 399 r nui_button;
#X obj 8 236 NuiPd;
#X msg 177 75 paint;
#X obj 8 56 tgl 15 0 empty empty empty 17 7 0 10 -262144 -1 -1 1 1
;
#X msg 179 135 info;
#X msg 8 168 process 1;
#X obj 45 422 route 0 1 2;
#X obj 55 583 tgl 15 0 empty empty empty 17 7 0 10 -262144 -1 -1 0
1;
#X obj 76 583 tgl 15 0 empty empty empty 17 7 0 10 -262144 -1 -1 0
1;
#X obj 97 583 tgl 15 0 empty empty empty 17 7 0 10 -262144 -1 -1 0
1;
#X obj 241 450 route 0 1 2 3, f 37;
#X obj 8 7 loadbang;
#X obj 8 32 delay 1;
#X obj 228 543 s enc0;
#X obj 290 548 s enc1;
#X obj 358 548 s enc2;
#X obj 423 548 s enc3;
#X obj 36 491 s but0;
#X obj 113 544 s but2;
#X obj 85 512 s but1;
#X obj 47 205 r NuiMsg;
#X obj 177 101 s NuiMsg;
#X obj 179 157 s NuiMsg;
#X obj 8 80 metro 1 10 msec;
#X text 66 285 (See Nuilite.h for doc);
#X text 57 358 Buttons send 2 messages: click and unclick !, f 25
;
#X obj 672 369 tgl 15 0 empty empty empty 17 7 0 10 -262144 -1 -1 1
1;
#X obj 672 297 packOSC;
#X obj 672 333 udpsend;
#X obj 606 189 r oscOut;
#X msg 735 297 connect localhost 4000;
#X obj 756 193 metro 1000;
#X obj 834 74 loadbang;
#X text 697 370 connected;
#X msg 974 197 \; pd dsp 1 \;;
#X obj 1109 202 s recallShiftParams;
#X obj 672 409 s oscConnected;
#X obj 606 248 spigot 0;
#X obj 651 217 r oscConnected;
#X obj 788 237 delay 100;
#X obj 939 164 delay 200;
#X obj 862 189 s midiCh;
#X obj 852 157 int 2;
#X obj 834 96 t b b b b;
#X obj 1407 55 r trigSource;
#X floatatom 1407 77 5 0 0 0 - - -;
#X floatatom 1409 130 5 0 0 0 - - -;
#X obj 1409 108 r midiCh;
#X floatatom 1409 181 5 0 0 0 - - -;
#X obj 1409 159 r inputGain;
#X text 1414 26 shift params;
#X obj 1149 318 r inputGain;
#X obj 1149 357 f;
#X obj 1149 389 / 100;
#X msg 1149 421 sendtyped /ascale f \$1;
#X obj 1227 518 s oscOut;
#X obj 1329 365 r link-session-present;
#X msg 1329 430 sendtyped /linkpresent i \$1;
#X obj 1329 400 i;
#X obj 1558 396 i;
#X msg 1558 426 sendtyped /atrigen i \$1;
#X obj 1558 354 r audioTrigEnable;
#X text 1330 291 there isn't a mechanism for this patch to know when
the video engine is ready to receive params \, so we just send them
every second...;
#N canvas 0 96 1920 984 fatesHardwareInput 0;
#X obj 754 816 outlet oscOut;
#X msg 1116 496 sendtyped /knobs iiiiii \$1 \$2 \$3 \$4 \$5 0;
#X obj 1205 216 r enc0;
#X obj 1344 217 r enc1;
#X obj 1510 219 r enc2;
#X obj 1620 203 r enc3;
#X text 1151 474 4 Mode Params + 1 Background color;
#X msg 402 376 sendtyped /key ii 1 \$1;
#X obj 212 37 r but0;
#X obj 44 297 r but1;
#X text 549 376 Info Disp;
#X text 466 484 Auto-clear Toggle;
#X obj 103 290 r but2;
#X obj 73 345 &&;
#X obj 1372 301 spigot 1;
#X obj 1505 313 spigot 1;
#X obj 1395 70 r but1;
#X obj 1613 69 r but2;
#X msg 1165 691 sendtyped /trig i \$1;
#X msg 325 485 sendtyped /key ii 3 \$1;
#X text 447 582 Previous Mode;
#X text 448 622 Next Mode;
#X obj 79 425 r enc1;
#X obj 92 499 > 0;
#X obj 92 522 route 0 1;
#X msg 308 584 sendtyped /key ii 4 1;
#X msg 310 624 sendtyped /key ii 5 1;
#X obj 142 425 r but1;
#X obj 92 466 spigot 0;
#X obj 66 664 > 0;
#X obj 66 687 route 0 1;
#X obj 67 623 spigot 0;
#X obj 54 582 r enc2;
#X obj 117 582 r but2;
#X msg 297 753 sendtyped /key ii 6 1;
#X msg 299 793 sendtyped /key ii 7 1;
#X text 436 751 Previous Scene;
#X text 437 790 Next Scene;
#X obj 74 795 &&;
#X text 425 884 Save or delete Scene;
#X msg 284 885 sendtyped /key ii 8 \$1;
#X obj 45 747 r but0;
#X obj 104 740 r but1;
#X obj 1677 791 &&;
#X obj 1648 743 r but0;
#X msg 1186 791 sendtyped /key ii 9 \$1;
#X text 1325 793 Screenshot;
#X obj 1707 736 r but2;
#X obj 1510 655 &&;
#X obj 1474 591 r but2;
#X obj 1543 522 r but1;
#X obj 1543 545 - 1;
#X obj 1543 568 abs;
#X obj 1675 640 &&;
#X obj 1639 576 r but2;
#X obj 1708 530 - 1;
#X obj 1708 553 abs;
#X obj 1708 505 r but0;
#X obj 1598 691 &&;
#X obj 1749 261 spigot 0;
#X obj 1721 211 r enc3;
#X obj 1621 309 spigot 1;
#X obj 643 111 spigot 0;
#X obj 621 67 r enc0;
#X obj 1202 282 spigot 1;
#X obj 1282 69 r but0;
#X obj 1344 240 t b f;
#X obj 1510 242 t b f;
#X obj 1622 232 t b f;
#X obj 103 313 t b f;
#X obj 1707 758 t b f;
#X obj 104 763 t b f;
#X obj 1709 577 t b f;
#X obj 1544 593 t b f;
#X obj 1790 73 r but2;
#X obj 1705 74 r but2;
#X obj 1673 665 t b f;
#X obj 1502 699 sel 1;
#X obj 646 208 * 301;
#X obj 309 236 int 0;
#X msg 339 189 0, f 1;
#X obj 269 236 +;
#X obj 310 262 sel 2;
#X obj 339 140 loadbang;
#X obj 339 165 metro 1000;
#X obj 646 231 t f f;
#X obj 679 375 s inputGain;
#X obj 427 236 s shiftKey;
#X obj 203 73 t f f b f, f 34;
#X msg 310 285 1;
#X obj 216 149 sel 1;
#X msg 215 175 1;
#X msg 452 172 0;
#X obj 451 137 sel 1;
#X text 374 255 See shift Key subpatch in main;
#X obj 997 279 i;
#X obj 997 233 * 16;
#X obj 997 255 + 1;
#X obj 827 278 i;
#X obj 827 254 + 1;
#X floatatom 1013 313 5 0 0 0 - - -;
#X floatatom 854 309 5 0 0 0 - - -;
#X obj 839 377 s trigSource;
#X obj 1008 381 s midiCh;
#X obj 823 120 spigot 0;
#X obj 991 111 spigot 0;
#X obj 827 232 * 6;
#X obj 815 81 r enc1;
#X obj 993 82 r enc2;
#X obj 694 70 r shiftKey;
#X obj 894 59 r shiftKey;
#X obj 1073 75 r shiftKey;
#X obj 630 269 / 100;
#X text 851 294 Shift Params;
#X obj 1524 43 r shiftKey;
#N canvas 0 96 1321 731 value 0;
#X obj 169 74 t b f;
#X obj 169 160 +;
#X obj 169 130 clip 1 126;
#X obj 167 184 * 1023;
#X obj 169 206 / 127;
#X obj 167 36 inlet;
#X obj 169 242 outlet;
#X text 40 12 Storage of relative value in order not to jump;
#X text 42 99 input is +- 1;
#X obj 169 101 f 100;
#X connect 0 0 9 0;
#X connect 0 1 1 1;
#X connect 1 0 3 0;
#X connect 1 0 9 1;
#X connect 2 0 1 0;
#X connect 3 0 4 0;
#X connect 4 0 6 0;
#X connect 5 0 0 0;
#X connect 9 0 2 0;
#X restore 1203 330 pd value;
#N canvas 0 96 388 360 value 0;
#X obj 169 74 t b f;
#X obj 169 160 +;
#X obj 169 130 clip 1 126;
#X obj 169 101 f 63;
#X obj 167 184 * 1023;
#X obj 169 206 / 127;
#X obj 167 36 inlet;
#X obj 169 242 outlet;
#X text 40 12 Storage of relative value in order not to jump;
#X text 42 99 input is +- 1;
#X connect 0 0 3 0;
#X connect 0 1 1 1;
#X connect 1 0 3 1;
#X connect 1 0 4 0;
#X connect 2 0 1 0;
#X connect 3 0 2 0;
#X connect 4 0 5 0;
#X connect 5 0 7 0;
#X connect 6 0 0 0;
#X restore 1372 331 pd value;
#N canvas 0 96 388 360 value 0;
#X obj 169 74 t b f;
#X obj 169 160 +;
#X obj 169 130 clip 1 126;
#X obj 169 101 f 63;
#X obj 167 184 * 1023;
#X obj 169 206 / 127;
#X obj 167 36 inlet;
#X obj 169 242 outlet;
#X text 40 12 Storage of relative value in order not to jump;
#X text 42 99 input is +- 1;
#X connect 0 0 3 0;
#X connect 0 1 1 1;
#X connect 1 0 3 1;
#X connect 1 0 4 0;
#X connect 2 0 1 0;
#X connect 3 0 2 0;
#X connect 4 0 5 0;
#X connect 5 0 7 0;
#X connect 6 0 0 0;
#X restore 1507 345 pd value;
#N canvas 0 96 388 360 value 0;
#X obj 169 74 t b f;
#X obj 169 160 +;
#X obj 169 130 clip 1 126;
#X obj 169 101 f 63;
#X obj 167 184 * 1023;
#X obj 169 206 / 127;
#X obj 167 36 inlet;
#X obj 169 242 outlet;
#X text 40 12 Storage of relative value in order not to jump;
#X text 42 99 input is +- 1;
#X connect 0 0 3 0;
#X connect 0 1 1 1;
#X connect 1 0 3 1;
#X connect 1 0 4 0;
#X connect 2 0 1 0;
#X connect 3 0 2 0;
#X connect 4 0 5 0;
#X connect 5 0 7 0;
#X connect 6 0 0 0;
#X restore 1623 349 pd value;
#N canvas 0 96 388 360 value 0;
#X obj 169 74 t b f;
#X obj 169 160 +;
#X obj 169 130 clip 1 126;
#X obj 169 101 f 63;
#X obj 167 184 * 1023;
#X obj 169 206 / 127;
#X obj 167 36 inlet;
#X obj 169 242 outlet;
#X text 40 12 Storage of relative value in order not to jump;
#X text 42 99 input is +- 1;
#X connect 0 0 3 0;
#X connect 0 1 1 1;
#X connect 1 0 3 1;
#X connect 1 0 4 0;
#X connect 2 0 1 0;
#X connect 3 0 2 0;
#X connect 4 0 5 0;
#X connect 5 0 7 0;
#X connect 6 0 0 0;
#X restore 1742 347 pd value;
#N canvas 0 96 388 360 value 0;
#X obj 169 74 t b f;
#X obj 169 160 +;
#X obj 169 130 clip 1 126;
#X obj 169 101 f 63;
#X obj 167 184 * 1023;
#X obj 169 206 / 127;
#X obj 167 36 inlet;
#X obj 169 242 outlet;
#X text 40 12 Storage of relative value in order not to jump;
#X text 42 99 input is +- 1;
#X connect 0 0 3 0;
#X connect 0 1 1 1;
#X connect 1 0 3 1;
#X connect 1 0 4 0;
#X connect 2 0 1 0;
#X connect 3 0 2 0;
#X connect 4 0 5 0;
#X connect 5 0 7 0;
#X connect 6 0 0 0;
#X restore 998 161 pd value;
#N canvas 0 96 388 360 value 0;
#X obj 169 74 t b f;
#X obj 169 160 +;
#X obj 169 130 clip 1 126;
#X obj 169 101 f 63;
#X obj 167 184 * 1023;
#X obj 169 206 / 127;
#X obj 167 36 inlet;
#X obj 169 242 outlet;
#X text 40 12 Storage of relative value in order not to jump;
#X text 42 99 input is +- 1;
#X connect 0 0 3 0;
#X connect 0 1 1 1;
#X connect 1 0 3 1;
#X connect 1 0 4 0;
#X connect 2 0 1 0;
#X connect 3 0 2 0;
#X connect 4 0 5 0;
#X connect 5 0 7 0;
#X connect 6 0 0 0;
#X restore 823 161 pd value;
#N canvas 0 96 388 360 value 0;
#X obj 169 74 t b f;
#X obj 169 160 +;
#X obj 169 130 clip 1 126;
#X obj 169 101 f 63;
#X obj 167 184 * 1023;
#X obj 169 206 / 127;
#X obj 167 36 inlet;
#X obj 169 242 outlet;
#X text 40 12 Storage of relative value in order not to jump;
#X text 42 99 input is +- 1;
#X connect 0 0 3 0;
#X connect 0 1 1 1;
#X connect 1 0 3 1;
#X connect 1 0 4 0;
#X connect 2 0 1 0;
#X connect 3 0 2 0;
#X connect 4 0 5 0;
#X connect 5 0 7 0;
#X connect 6 0 0 0;
#X restore 642 145 pd value;
#X obj 646 184 / 1023;
#X obj 827 207 / 1023;
#X obj 998 210 / 1023;
#X obj 1524 81 t b f;
#X obj 1278 213 - 1;
#X obj 1278 190 ||;
#X obj 1432 216 - 1;
#X obj 1432 194 ||;
#X obj 1563 191 ||;
#X obj 1563 214 - 1;
#X obj 1673 183 ||;
#X obj 1673 206 - 1;
#X obj 1789 196 &&;
#X obj 1804 176 - 1;
#X obj 1317 429 pack 0 0 0 0 0, f 58;
#X connect 1 0 0 0;
#X connect 2 0 64 0;
#X connect 3 0 66 0;
#X connect 4 0 67 0;
#X connect 5 0 68 0;
#X connect 7 0 0 0;
#X connect 8 0 88 0;
#X connect 9 0 13 0;
#X connect 12 0 69 0;
#X connect 13 0 19 0;
#X connect 14 0 116 0;
#X connect 15 0 117 0;
#X connect 16 0 130 0;
#X connect 17 0 131 0;
#X connect 18 0 0 0;
#X connect 19 0 0 0;
#X connect 22 0 28 0;
#X connect 23 0 24 0;
#X connect 24 0 25 0;
#X connect 24 1 26 0;
#X connect 25 0 0 0;
#X connect 26 0 0 0;
#X connect 27 0 28 1;
#X connect 28 0 23 0;
#X connect 29 0 30 0;
#X connect 30 0 34 0;
#X connect 30 1 35 0;
#X connect 31 0 29 0;
#X connect 32 0 31 0;
#X connect 33 0 31 1;
#X connect 34 0 0 0;
#X connect 35 0 0 0;
#X connect 38 0 40 0;
#X connect 40 0 0 0;
#X connect 41 0 38 0;
#X connect 42 0 71 0;
#X connect 43 0 45 0;
#X connect 44 0 43 0;
#X connect 45 0 0 0;
#X connect 47 0 70 0;
#X connect 48 0 58 0;
#X connect 49 0 48 0;
#X connect 50 0 51 0;
#X connect 51 0 52 0;
#X connect 52 0 73 0;
#X connect 53 0 76 0;
#X connect 54 0 53 0;
#X connect 55 0 56 0;
#X connect 56 0 72 0;
#X connect 57 0 55 0;
#X connect 58 0 77 0;
#X connect 59 0 119 0;
#X connect 60 0 59 0;
#X connect 61 0 118 0;
#X connect 62 0 122 0;
#X connect 63 0 62 0;
#X connect 64 0 115 0;
#X connect 65 0 128 0;
#X connect 66 0 137 0;
#X connect 66 1 14 0;
#X connect 67 0 137 0;
#X connect 67 1 15 0;
#X connect 68 0 137 0;
#X connect 68 1 61 0;
#X connect 69 0 13 0;
#X connect 69 1 13 1;
#X connect 70 0 43 0;
#X connect 70 1 43 1;
#X connect 71 0 38 0;
#X connect 71 1 38 1;
#X connect 72 0 53 0;
#X connect 72 1 53 1;
#X connect 73 0 48 0;
#X connect 73 1 48 1;
#X connect 74 0 135 0;
#X connect 75 0 133 0;
#X connect 76 0 58 0;
#X connect 76 1 58 1;
#X connect 77 0 18 0;
#X connect 78 0 85 0;
#X connect 79 0 81 1;
#X connect 79 0 82 0;
#X connect 80 0 79 1;
#X connect 81 0 79 1;
#X connect 82 0 89 0;
#X connect 83 0 84 0;
#X connect 84 0 80 0;
#X connect 85 0 112 0;
#X connect 85 1 86 0;
#X connect 88 0 90 0;
#X connect 88 1 81 0;
#X connect 88 2 79 0;
#X connect 88 3 93 0;
#X connect 89 0 87 0;
#X connect 90 0 91 0;
#X connect 91 0 7 0;
#X connect 92 0 87 0;
#X connect 93 0 92 0;
#X connect 95 0 100 0;
#X connect 95 0 103 0;
#X connect 96 0 97 0;
#X connect 97 0 95 0;
#X connect 98 0 101 0;
#X connect 98 0 102 0;
#X connect 99 0 98 0;
#X connect 104 0 121 0;
#X connect 105 0 120 0;
#X connect 106 0 99 0;
#X connect 107 0 104 0;
#X connect 108 0 105 0;
#X connect 109 0 62 1;
#X connect 110 0 104 1;
#X connect 111 0 105 1;
#X connect 114 0 126 0;
#X connect 115 0 137 0;
#X connect 116 0 137 1;
#X connect 117 0 137 2;
#X connect 118 0 137 3;
#X connect 119 0 137 4;
#X connect 120 0 125 0;
#X connect 121 0 124 0;
#X connect 122 0 123 0;
#X connect 123 0 78 0;
#X connect 124 0 106 0;
#X connect 125 0 96 0;
#X connect 126 0 128 0;
#X connect 126 0 130 0;
#X connect 126 0 131 0;
#X connect 126 0 133 0;
#X connect 126 0 135 0;
#X connect 126 1 128 1;
#X connect 126 1 130 1;
#X connect 126 1 131 1;
#X connect 126 1 133 1;
#X connect 126 1 136 0;
#X connect 127 0 64 1;
#X connect 128 0 127 0;
#X connect 129 0 14 1;
#X connect 130 0 129 0;
#X connect 131 0 132 0;
#X connect 132 0 15 1;
#X connect 133 0 134 0;
#X connect 134 0 61 1;
#X connect 135 0 59 1;
#X connect 136 0 135 1;
#X connect 137 0 1 0;
#X restore 663 542 pd fatesHardwareInput;
#X obj 1268 301 bang;
#X text 728 14 This patch controls the video engine via osc;
#N canvas 0 160 1920 984 shift-params 0;
#X obj 276 7 r shiftKey;
#X obj 882 395 textfile;
#X msg 1054 242 clear;
#X msg 833 259 add midiCh \$1;
#X msg 874 292 add trigSource \$1;
#X msg 905 321 add inputGain \$1;
#X obj 860 166 r midiCh;
#X obj 908 188 r trigSource;
#X obj 972 207 r inputGain;
#X obj 941 236 i 100;
#X obj 889 226 i 0;
#X obj 846 214 i 1;
#X obj 893 130 t b b b b;
#X obj 828 54 bng 15 250 50 0 empty empty empty 17 7 0 10 -262144 -1
-1;
#N canvas 323 397 1581 671 shift-display 0;
#X msg 79 153 sendtyped /shift i \$1;
#X obj 387 421 s oscOut;
#X msg 268 159 send /sline 0 Input Gain \$1 %;
#X msg 952 302 send /sline 2 MIDI Channel \$1;
#X msg 550 317 send /sline 1 Trigger Source MIDI Notes;
#X msg 481 200 send /sline 1 Trigger Source Audio;
#X obj 239 76 r inputGain;
#X obj 451 67 r trigSource;
#X obj 858 66 r midiCh;
#X obj 77 48 inlet;
#X text 108 121 enable overlay;
#X msg 502 221 send /sline 1 Trigger Source LINK Quarter Note;
#X msg 516 242 send /sline 1 Trigger Source LINK Eighth Note;
#X msg 521 267 send /sline 1 Trigger Source MIDI Clock Quarter Note
;
#X msg 537 290 send /sline 1 Trigger Source MIDI Clock Eighth Note
;
#X obj 502 168 sel 1 2 3 4 5 6;
#X connect 0 0 1 0;
#X connect 2 0 1 0;
#X connect 3 0 1 0;
#X connect 4 0 1 0;
#X connect 5 0 1 0;
#X connect 6 0 2 0;
#X connect 7 0 15 0;
#X connect 8 0 3 0;
#X connect 9 0 0 0;
#X connect 11 0 1 0;
#X connect 12 0 1 0;
#X connect 13 0 1 0;
#X connect 14 0 1 0;
#X connect 15 0 5 0;
#X connect 15 1 11 0;
#X connect 15 2 12 0;
#X connect 15 3 13 0;
#X connect 15 4 14 0;
#X connect 15 5 4 0;
#X restore 73 140 pd shift-display;
#X obj 285 99 == 1;
#X obj 291 142 sel 1 0;
#X obj 381 195 s saveShiftParams;
#X obj 214 199 s recallShiftParams;
#X obj 739 28 r saveShiftParams;
#X obj 827 76 t b b;
#X obj 1036 286 bng 15 250 50 0 empty empty empty 17 7 0 10 -262144
-1 -1;
#X obj 855 428 route inputGain trigSource midiCh;
#X floatatom 850 456 5 0 0 0 - - -;
#X floatatom 927 454 5 0 0 0 - - -;
#X floatatom 1008 453 5 0 0 0 - - -;
#X obj 1075 281 r recallShiftParams;
#X obj 811 494 s inputGain;
#X obj 902 492 s trigSource;
#X obj 1007 492 s midiCh;
#X obj 1048 322 t b b b b b;
#X msg 1027 360 rewind;
#X obj 270 36 change 0;
#X text 342 40 ignore first 0;
#X msg 617 129 write ../system/shift-params.txt;
#X msg 1087 361 read ../system/shift-params.txt;
#X obj 275 68 t f f;
#X connect 0 0 32 0;
#X connect 1 0 22 0;
#X connect 2 0 1 0;
#X connect 3 0 1 0;
#X connect 4 0 1 0;
#X connect 5 0 1 0;
#X connect 6 0 11 1;
#X connect 7 0 10 1;
#X connect 8 0 9 1;
#X connect 9 0 5 0;
#X connect 10 0 4 0;
#X connect 11 0 3 0;
#X connect 12 0 11 0;
#X connect 12 1 10 0;
#X connect 12 2 9 0;
#X connect 12 3 2 0;
#X connect 13 0 20 0;
#X connect 15 0 16 0;
#X connect 16 0 18 0;
#X connect 16 1 17 0;
#X connect 19 0 20 0;
#X connect 20 0 34 0;
#X connect 20 1 12 0;
#X connect 21 0 30 0;
#X connect 22 0 23 0;
#X connect 22 1 24 0;
#X connect 22 2 25 0;
#X connect 23 0 27 0;
#X connect 24 0 28 0;
#X connect 25 0 29 0;
#X connect 26 0 30 0;
#X connect 30 0 1 0;
#X connect 30 1 1 0;
#X connect 30 2 1 0;
#X connect 30 3 31 0;
#X connect 30 4 35 0;
#X connect 31 0 1 0;
#X connect 32 0 36 0;
#X connect 34 0 1 0;
#X connect 35 0 1 0;
#X connect 36 0 14 0;
#X connect 36 1 15 0;
#X restore 1576 54 pd shift-params;
#N canvas 330 177 1363 871 metro-and-trig 0;
#N canvas 0 160 1216 609 metronome 0;
#X floatatom 393 117 5 0 0 1 tempo - -;
#X obj 165 127 * 360;
#X obj 165 149 i;
#X obj 616 57 midirealtimein;
#X text 932 98 MIDI 248 = clock \; 250 = start \; 251 = continue. 252
= stop;
#X obj 616 108 sel 248 250 251 252 254, f 38;
#X obj 616 244 f;
#X obj 682 243 + 1;
#X obj 616 266 t f f;
#X obj 616 311 % 24;
#X obj 616 356 * 15;
#X obj 616 406 i;
#X obj 773 134 s midi-stop;
#X obj 668 193 s midi-start;
#X obj 721 163 s midi-cont;
#X obj 165 476 clockfix;
#N canvas 27 96 815 554 LINK 0;
#X msg 355 126 tempo \$1;
#X msg 144 127 resolution \$1;
#X msg 247 147 reset \$1 \$2;
#X obj 247 126 pack f f;
#X floatatom 266 247 5 0 0 1 beat_time - -;
#X floatatom 180 285 5 0 0 1 step - -;
#X floatatom 378 246 5 0 0 1 tempo - -;
#X obj 59 105 tgl 15 0 empty empty empty 17 7 0 10 -262144 -1 -1 1
1;
#X obj 180 199 abl_link~ 1 0 4 134;
#X floatatom 355 107 5 0 0 2 tempo - -;
#X floatatom 292 107 5 0 0 2 quantum - -;
#X floatatom 247 107 5 0 0 2 beat - -;
#X floatatom 144 107 5 0 0 2 resolution - -;
#X msg 59 125 connect \$1;
#X floatatom 510 231 5 0 0 0 - - -;
#X obj 510 209 r #abl_link_num_peers;
#X obj 32 45 loadbang;
#X obj 32 67 delay 100;
#X obj 267 326 wrap;
#X obj 285 31 inlet;
#X obj 388 273 i;
#X obj 267 388 outlet;
#X obj 388 295 outlet;
#X obj 510 261 > 0;
#X obj 510 283 s link-session-present;
#X connect 0 0 8 0;
#X connect 1 0 8 0;
#X connect 2 0 8 0;
#X connect 3 0 2 0;
#X connect 6 0 20 0;
#X connect 7 0 13 0;
#X connect 8 0 5 0;
#X connect 8 1 18 0;
#X connect 8 2 4 0;
#X connect 8 3 6 0;
#X connect 9 0 0 0;
#X connect 10 0 3 1;
#X connect 11 0 3 0;
#X connect 12 0 1 0;
#X connect 13 0 8 0;
#X connect 14 0 23 0;
#X connect 15 0 14 0;
#X connect 16 0 17 0;
#X connect 17 0 7 0;
#X connect 18 0 21 0;
#X connect 19 0 9 0;
#X connect 20 0 22 0;
#X connect 23 0 24 0;
#X restore 165 88 pd LINK - - - - - - - - - - - - -;
#X obj 616 476 clockfix;
#X obj 616 536 outlet midiclk;
#X obj 165 536 outlet linkclk;
#X text 225 14 This metronome outputs 360 ticks per beat numbered 0-359.
;
#X text 295 471 the clockfix object ensures there are always 360 ticks
numbered 0-359., f 40;
#X connect 1 0 2 0;
#X connect 2 0 15 0;
#X connect 3 0 5 0;
#X connect 5 0 6 0;
#X connect 5 1 13 0;
#X connect 5 2 14 0;
#X connect 5 3 12 0;
#X connect 6 0 8 0;
#X connect 7 0 6 1;
#X connect 8 0 9 0;
#X connect 8 1 7 0;
#X connect 9 0 10 0;
#X connect 10 0 11 0;
#X connect 11 0 17 0;
#X connect 15 0 19 0;
#X connect 16 0 1 0;
#X connect 16 1 0 0;
#X connect 17 0 18 0;
#X restore 78 36 pd metronome;
#X obj 210 97 r midiNoteIn;
#X obj 210 119 unpack 0 0;
#X obj 210 144 stripnote;
#X obj 210 172 bng 15 250 50 0 empty empty empty 17 7 0 10 -262144
-1 -1;
#X msg 93 311 sendtyped /trig i 1;
#X obj 338 108 r trigSource;
#X floatatom 339 155 5 0 0 0 - - -;
#X text 245 27 trigger sources are: 1 = Audio 2 = Link 1/4 3 = Link
1/8 4 = Midi clk 1/4 5 = Midi clk 1/8 6 = Midi notes;
#X obj 46 142 sel 0 180;
#X obj 133 143 sel 0 180;
#X obj 133 171 bng 15 250 50 0 empty empty empty 17 7 0 10 -262144
-1 -1;
#X obj 164 169 bng 15 250 50 0 empty empty empty 17 7 0 10 -262144
-1 -1;
#X obj 44 172 bng 15 250 50 0 empty empty empty 17 7 0 10 -262144 -1
-1;
#X obj 75 170 bng 15 250 50 0 empty empty empty 17 7 0 10 -262144 -1
-1;
#X msg 210 206 6;
#X msg 43 210 2;
#X msg 85 207 3;
#X msg 136 208 4;
#X msg 170 207 5;
#X obj 93 256 sel 0;
#X obj 338 190 t f f;
#X obj 374 216 sel 1;
#X msg 376 257 1;
#X obj 375 305 s audioTrigEnable;
#X obj 419 240 bang;
#X msg 421 270 0;
#X obj 49 90 spigot;
#X obj 95 62 r link-session-present;
#X obj 93 345 outlet sendOSC;
#X connect 0 0 27 0;
#X connect 0 1 10 0;
#X connect 1 0 2 0;
#X connect 2 0 3 0;
#X connect 2 1 3 1;
#X connect 3 0 4 0;
#X connect 4 0 15 0;
#X connect 5 0 29 0;
#X connect 6 0 7 0;
#X connect 7 0 21 0;
#X connect 9 0 13 0;
#X connect 9 1 14 0;
#X connect 10 0 11 0;
#X connect 10 1 12 0;
#X connect 11 0 18 0;
#X connect 11 0 19 0;
#X connect 12 0 19 0;
#X connect 13 0 16 0;
#X connect 13 0 17 0;
#X connect 14 0 17 0;
#X connect 15 0 20 0;
#X connect 16 0 20 0;
#X connect 17 0 20 0;
#X connect 18 0 20 0;
#X connect 19 0 20 0;
#X connect 20 0 5 0;
#X connect 21 0 20 1;
#X connect 21 1 22 0;
#X connect 22 0 23 0;
#X connect 22 1 25 0;
#X connect 23 0 24 0;
#X connect 25 0 26 0;
#X connect 26 0 24 0;
#X connect 27 0 9 0;
#X connect 28 0 27 1;
#X restore 1566 118 pd metro-and-trig;
#X obj 812 748 s oscOut;
#X obj 1563 167 s oscOut;
#N canvas 0 96 1920 984 midiInput 0;
#X obj 687 888 outlet oscOut;
#X msg 974 837 sendtyped /key ii 1 \$1;
#X text 1121 835 Info Disp;
#X text 1118 470 Auto-clear Toggle;
#X msg 978 910 sendtyped /trig i \$1;
#X msg 977 471 sendtyped /key ii 3 \$1;
#X text 1116 632 Previous Mode;
#X text 1113 665 Next Mode;
#X text 1115 323 Next Scene;
#X text 1114 395 Save or delete Scene;
#X msg 973 396 sendtyped /key ii 8 \$1;
#X msg 972 747 sendtyped /key ii 9 \$1;
#X text 1114 747 Screenshot;
#X obj 317 703 * 301;
#X obj 312 781 s inputGain;
#X obj 122 688 s shiftKey;
#X text 66 712 See shift Key subpatch in main;
#X obj 457 694 i;
#X obj 457 670 + 1;
#X obj 455 780 s trigSource;
#X obj 457 648 * 6;
#X obj 254 69 notein;
#X text 479 37 MIDI IN;
#X obj 639 83 ctlin;
#X obj 254 158 pack 0 0;
#X obj 639 167 pack 0 0;
#X obj 754 82 r midiCh;
#X obj 739 141 i 1;
#X obj 712 168 ==;
#X obj 712 115 t f b;
#X obj 658 205 spigot;
#X obj 262 188 spigot;
#X obj 366 71 r midiCh;
#X obj 351 132 i 1;
#X obj 324 156 ==;
#X obj 324 107 t f b;
#X text 476 745 Shift Params;
#X text 1116 296 Previous Scene;
#X text 1147 135 Midi cc;
#X msg 973 134 sendtyped /midicc ii \$1 \$2;
#X text 341 295 Midi note;
#X msg 161 294 sendtyped /midinote ii \$1 \$2;
#X obj 658 228 t a a;
#X obj 976 99 list store;
#X obj 976 78 bang;
#X obj 974 815 > 63;
#X obj 978 888 > 63;
#X obj 973 726 > 63;
#X obj 974 375 > 63;
#X obj 976 449 > 63;
#X msg 587 183 30 127;
#X obj 317 680 / 127;
#X obj 457 624 / 127;
#X obj 1080 68 unpack 0 0;
#X obj 1078 102 pack 0 0;
#X obj 297 233 s midiNoteIn;
#X obj 979 238 > 0;
#X obj 979 261 route 0 1;
#X msg 977 326 sendtyped /key ii 7 1;
#X obj 1001 206 int 0;
#X obj 971 211 -;
#X obj 982 179 t f f b;
#X obj 974 572 > 0;
#X obj 974 595 route 0 1;
#X obj 996 540 int 0;
#X obj 966 545 -;
#X obj 977 513 t f f b;
#X obj 949 23 route 21 22 23 24 25 26 27 28 29 30 31 32, f 121;
#X obj 625 378 route 33 34 35;
#X msg 978 634 sendtyped /key ii 4 1;
#X msg 975 667 sendtyped /key ii 5 1;
#X msg 972 294 sendtyped /key ii 6 1;
#X connect 1 0 0 0;
#X connect 4 0 0 0;
#X connect 5 0 0 0;
#X connect 10 0 0 0;
#X connect 11 0 0 0;
#X connect 13 0 14 0;
#X connect 17 0 19 0;
#X connect 18 0 17 0;
#X connect 20 0 18 0;
#X connect 21 0 24 0;
#X connect 21 1 24 1;
#X connect 21 2 35 0;
#X connect 23 0 25 1;
#X connect 23 1 25 0;
#X connect 23 2 29 0;
#X connect 24 0 31 0;
#X connect 25 0 30 0;
#X connect 26 0 27 1;
#X connect 27 0 28 1;
#X connect 28 0 30 1;
#X connect 29 0 28 0;
#X connect 29 1 27 0;
#X connect 30 0 42 0;
#X connect 31 0 41 0;
#X connect 31 0 55 0;
#X connect 32 0 33 1;
#X connect 33 0 34 1;
#X connect 34 0 31 1;
#X connect 35 0 34 0;
#X connect 35 1 33 0;
#X connect 39 0 0 0;
#X connect 41 0 0 0;
#X connect 42 0 67 0;
#X connect 42 0 68 0;
#X connect 42 1 43 1;
#X connect 43 0 53 0;
#X connect 44 0 43 0;
#X connect 45 0 1 0;
#X connect 46 0 4 0;
#X connect 47 0 11 0;
#X connect 48 0 10 0;
#X connect 49 0 5 0;
#X connect 50 0 30 0;
#X connect 51 0 13 0;
#X connect 52 0 20 0;
#X connect 53 0 54 1;
#X connect 53 1 54 0;
#X connect 54 0 39 0;
#X connect 56 0 57 0;
#X connect 57 0 71 0;
#X connect 57 1 58 0;
#X connect 58 0 0 0;
#X connect 59 0 60 1;
#X connect 60 0 56 0;
#X connect 61 0 60 0;
#X connect 61 1 59 1;
#X connect 61 2 59 0;
#X connect 62 0 63 0;
#X connect 63 0 69 0;
#X connect 63 1 70 0;
#X connect 64 0 65 1;
#X connect 65 0 62 0;
#X connect 66 0 65 0;
#X connect 66 1 64 1;
#X connect 66 2 64 0;
#X connect 67 0 44 0;
#X connect 67 1 44 0;
#X connect 67 2 44 0;
#X connect 67 3 44 0;
#X connect 67 4 44 0;
#X connect 67 5 61 0;
#X connect 67 6 48 0;
#X connect 67 7 49 0;
#X connect 67 8 66 0;
#X connect 67 9 47 0;
#X connect 67 10 45 0;
#X connect 67 11 46 0;
#X connect 68 0 15 0;
#X connect 68 1 51 0;
#X connect 68 2 52 0;
#X connect 69 0 0 0;
#X connect 70 0 0 0;
#X connect 71 0 0 0;
#X restore 870 550 pd midiInput;
#X connect 0 0 1 0;
#X connect 2 0 3 0;
#X connect 4 0 15 0;
#X connect 5 0 11 0;
#X connect 7 0 26 0;
#X connect 8 0 28 0;
#X connect 9 0 27 0;
#X connect 10 0 6 0;
#X connect 11 0 12 0;
#X connect 11 0 22 0;
#X connect 11 1 13 0;
#X connect 11 1 24 0;
#X connect 11 2 14 0;
#X connect 11 2 23 0;
#X connect 15 0 18 0;
#X connect 15 1 19 0;
#X connect 15 2 20 0;
#X connect 15 3 21 0;
#X connect 16 0 17 0;
#X connect 17 0 8 0;
#X connect 25 0 6 0;
#X connect 28 0 10 0;
#X connect 31 0 41 0;
#X connect 32 0 33 0;
#X connect 33 0 31 0;
#X connect 34 0 42 0;
#X connect 35 0 33 0;
#X connect 36 0 44 0;
#X connect 37 0 48 0;
#X connect 42 0 32 0;
#X connect 43 0 42 1;
#X connect 44 0 69 0;
#X connect 44 0 35 0;
#X connect 45 0 39 0;
#X connect 47 0 46 0;
#X connect 48 0 36 0;
#X connect 48 1 47 0;
#X connect 48 2 45 0;
#X connect 48 3 40 0;
#X connect 49 0 50 0;
#X connect 52 0 51 0;
#X connect 54 0 53 0;
#X connect 56 0 57 0;
#X connect 57 0 58 0;
#X connect 58 0 59 0;
#X connect 59 0 60 0;
#X connect 61 0 63 0;
#X connect 62 0 60 0;
#X connect 63 0 62 0;
#X connect 64 0 65 0;
#X connect 65 0 60 0;
#X connect 66 0 64 0;
#X connect 68 0 73 0;
#X connect 69 0 57 0;
#X connect 69 0 63 0;
#X connect 69 0 64 0;
#X connect 72 0 74 0;
#X connect 75 0 73 0;
