#N canvas 0 175 2536 1386 10;
#X obj 180 227 r nui_num_encoders;
#X obj 180 250 print num encoders;
#X obj 179 177 r nui_num_buttons;
#X obj 179 200 print num buttons;
#X obj 852 19 r nui_encoder;
#X obj 697 22 r nui_button;
#X obj 8 236 NuiPd;
#X msg 177 75 paint;
#X obj 8 56 tgl 15 0 empty empty empty 17 7 0 10 -262144 -1 -1 1 1
;
#X msg 179 135 info;
#X msg 8 168 process 1;
#X obj 697 45 route 0 1 2;
#X obj 697 187 tgl 15 0 empty empty empty 17 7 0 10 -262144 -1 -1 0
1;
#X obj 718 187 tgl 15 0 empty empty empty 17 7 0 10 -262144 -1 -1 0
1;
#X obj 739 187 tgl 15 0 empty empty empty 17 7 0 10 -262144 -1 -1 0
1;
#X obj 852 42 route 0 1 2 3, f 37;
#X obj 852 103 t b f;
#X obj 852 130 f 0;
#X obj 852 189 +;
#X obj 847 233 nbx 5 14 -1e+37 1e+37 0 0 empty empty empty 0 -8 0 10
-262144 -1 -1 127 256;
#X obj 936 232 nbx 5 14 -1e+37 1e+37 0 0 empty empty empty 0 -8 0 10
-262144 -1 -1 107 256;
#X obj 1023 233 nbx 5 14 -1e+37 1e+37 0 0 empty empty empty 0 -8 0
10 -262144 -1 -1 15 256;
#X obj 1106 232 nbx 5 14 -1e+37 1e+37 0 0 empty empty empty 0 -8 0
10 -262144 -1 -1 64 256;
#X obj 8 7 loadbang;
#X obj 8 32 delay 1;
#X obj 854 348 s enc0;
#X obj 923 348 s enc1;
#X obj 991 348 s enc2;
#X obj 1056 348 s enc3;
#X obj 703 104 s but0;
#X obj 747 156 s but2;
#X obj 725 128 s but1;
#X obj 47 205 r NuiMsg;
#X obj 177 101 s NuiMsg;
#X obj 179 157 s NuiMsg;
#X text 17 333 note:;
#X obj 8 80 metro 1 10 msec;
#X text 19 352 process - dispatches button and encoder events optionally
can call paint arg = 1 \, performs paint on each call arg = 0 (def)
\, user should call paint;
#X text 380 22 (See Nuilite.h for doc);
#X text 519 96 Buttons send 2 messages: click and unclick !, f 25
;
#X obj 773 802 tgl 15 0 empty empty empty 17 7 0 10 -262144 -1 -1 1
1;
#X obj 773 730 packOSC;
#X obj 773 766 udpsend;
#X obj 706 622 r oscOut;
#X msg 836 730 connect localhost 4000;
#X obj 857 626 metro 1000;
#X obj 935 507 loadbang;
#X obj 773 539 udpreceive 4001;
#X obj 773 561 unpackOSC;
#X obj 772 587 s oscIn;
#X text 798 803 connected;
#X msg 1075 630 \; pd dsp 1 \;;
#X obj 1300 670 s recallShiftParams;
#X obj 773 842 s oscConnected;
#X obj 707 681 spigot 0;
#X obj 744 650 r oscConnected;
#X obj 889 670 delay 100;
#X obj 889 692 s ping;
#X obj 1040 597 delay 200;
#N canvas 561 175 1360 1126 midi 0;
#X obj 60 40 notein;
#X text 60 16 MIDI IN;
#X obj 329 38 ctlin;
#X obj 29 137 pack 0 0;
#X obj 336 142 pack 0 0;
#X obj 499 52 r midiCh;
#X obj 449 98 i 1;
#X obj 419 143 ==;
#X obj 399 74 t f b;
#X obj 351 180 spigot;
#X obj 42 183 spigot;
#X obj 222 57 r midiCh;
#X obj 172 103 i 1;
#X obj 142 148 ==;
#X obj 122 79 t f b;
#X obj 86 265 list prepend note;
#X obj 229 342 outlet midiOut;
#X obj 295 275 list prepend ctl;
#X connect 0 0 3 0;
#X connect 0 1 3 1;
#X connect 0 2 14 0;
#X connect 2 0 4 0;
#X connect 2 1 4 1;
#X connect 2 2 8 0;
#X connect 3 0 10 0;
#X connect 4 0 9 0;
#X connect 5 0 6 1;
#X connect 6 0 7 1;
#X connect 7 0 9 1;
#X connect 8 0 7 0;
#X connect 8 1 6 0;
#X connect 9 0 17 0;
#X connect 10 0 15 0;
#X connect 11 0 12 1;
#X connect 12 0 13 1;
#X connect 13 0 10 1;
#X connect 14 0 13 0;
#X connect 14 1 12 0;
#X connect 15 0 16 0;
#X connect 17 0 16 0;
#X restore 324 493 pd midi;
#N canvas 411 297 1440 720 knobs-and-keys 0;
#X obj 626 186 pack;
#X text 829 132 pins are SR LOAD \, CLOCK and DATA 4th argument is
number bits to shift, f 27;
#X obj 92 75 rpi_gpio_mcp3008, f 36;
#X floatatom 332 121 5 0 0 0 - - -;
#X floatatom 259 118 5 0 0 0 - - -;
#X floatatom 188 120 5 0 0 0 - - -;
#X floatatom 115 120 5 0 0 0 - - -;
#X floatatom 73 120 5 0 0 0 - - -;
#X obj 83 42 metro 50;
#X obj 40 255 pack 0 0 0 0 0;
#X obj 67 523 s oscOut;
#X msg 59 467 sendtyped /knobs iiiiii \$1 \$2 \$3 \$4 \$5 0;
#X obj 373 408 s oscOut;
#X obj 617 144 rpi_gpio_shiftin 34 32 33 16;
#X obj 872 299 change -1;
#X obj 872 348 tgl 15 0 empty empty empty 17 7 0 10 -262144 -1 -1 0
1;
#X obj 943 303 change -1;
#X obj 943 352 tgl 15 0 empty empty empty 17 7 0 10 -262144 -1 -1 0
1;
#X obj 1015 299 change -1;
#X obj 1015 348 tgl 15 0 empty empty empty 17 7 0 10 -262144 -1 -1
0 1;
#X obj 800 297 change -1;
#X obj 800 346 tgl 15 0 empty empty empty 17 7 0 10 -262144 -1 -1 0
1;
#X obj 731 298 change -1;
#X obj 731 347 tgl 15 0 empty empty empty 17 7 0 10 -262144 -1 -1 0
1;
#X obj 658 298 change -1;
#X obj 658 347 tgl 15 0 empty empty empty 17 7 0 10 -262144 -1 -1 0
1;
#X obj 1015 323 == 0;
#X obj 943 327 == 0;
#X obj 872 323 == 0;
#X obj 800 321 == 0;
#X obj 731 322 == 0;
#X obj 658 322 == 0;
#X obj 588 298 change -1;
#X obj 588 374 tgl 15 0 empty empty empty 17 7 0 10 -262144 -1 -1 0
1;
#X obj 589 344 == 0;
#X obj 517 300 change -1;
#X obj 517 349 tgl 15 0 empty empty empty 17 7 0 10 -262144 -1 -1 0
1;
#X obj 517 324 == 0;
#X obj 445 300 change -1;
#X obj 445 349 tgl 15 0 empty empty empty 17 7 0 10 -262144 -1 -1 0
1;
#X obj 445 324 == 0;
#X obj 373 298 change -1;
#X obj 373 347 tgl 15 0 empty empty empty 17 7 0 10 -262144 -1 -1 0
1;
#X obj 373 322 == 0;
#X obj 445 436 s oscOut;
#X obj 516 472 s oscOut;
#X obj 590 512 s oscOut;
#X obj 656 407 s oscOut;
#X obj 727 435 s oscOut;
#X obj 797 471 s oscOut;
#X obj 876 506 s oscOut;
#X obj 1018 449 s oscOut;
#X msg 590 487 sendtyped /key ii 4 \$1;
#X msg 445 411 sendtyped /key ii 6 \$1;
#X obj 683 82 rpi_gpio 35 0 1;
#X msg 682 56 0;
#X text 752 59 have to pull clock en low;
#X msg 876 481 sendtyped /key ii 1 \$1;
#X msg 1018 424 sendtyped /key ii 3 \$1;
#X msg 727 410 sendtyped /key ii 5 \$1;
#X msg 797 446 sendtyped /key ii 7 \$1;
#X msg 656 382 sendtyped /key ii 8 \$1;
#X msg 516 447 sendtyped /key ii 9 \$1;
#X msg 373 383 sendtyped /key ii 10 \$1;
#X obj 576 255 route 0 1 2 3 4 5 6 7 8 9 10 11 12 13 14 15;
#X obj 471 -31 t b b b;
#X obj 66 496 spigot 1;
#X obj 179 531 r enableKnobs;
#X obj 936 406 s shiftKey;
#X obj 64 417 t a a;
#X obj 101 444 s knobs;
#X obj 467 -78 loadbang;
#X obj 332 144 smooth;
#X obj 332 167 change -1;
#X obj 332 193 s knob1;
#X obj 259 144 smooth;
#X obj 259 167 change -1;
#X obj 259 193 s knob5;
#X obj 188 143 smooth;
#X obj 188 166 change -1;
#X obj 188 192 s knob2;
#X obj 39 146 smooth;
#X obj 39 169 change -1;
#X obj 39 195 s knob3;
#X obj 114 144 smooth;
#X obj 114 167 change -1;
#X obj 114 193 s knob4;
#X text 402 148 knob vals used in pd;
#X text 155 257 stream raw vals to video engine;
#X obj 604 110 metro 8;
#X obj 471 -54 delay 110;
#X obj 529 26 delay 10;
#X connect 0 0 64 0;
#X connect 2 0 7 0;
#X connect 2 1 6 0;
#X connect 2 2 5 0;
#X connect 2 3 4 0;
#X connect 2 4 3 0;
#X connect 3 0 72 0;
#X connect 3 0 9 0;
#X connect 4 0 75 0;
#X connect 4 0 9 4;
#X connect 5 0 78 0;
#X connect 5 0 9 1;
#X connect 6 0 84 0;
#X connect 6 0 9 3;
#X connect 7 0 81 0;
#X connect 7 0 9 2;
#X connect 8 0 2 0;
#X connect 9 0 69 0;
#X connect 11 0 66 0;
#X connect 13 0 0 0;
#X connect 13 1 0 1;
#X connect 14 0 28 0;
#X connect 15 0 57 0;
#X connect 16 0 27 0;
#X connect 17 0 68 0;
#X connect 18 0 26 0;
#X connect 19 0 58 0;
#X connect 20 0 29 0;
#X connect 21 0 60 0;
#X connect 22 0 30 0;
#X connect 23 0 59 0;
#X connect 24 0 31 0;
#X connect 25 0 61 0;
#X connect 26 0 19 0;
#X connect 27 0 17 0;
#X connect 28 0 15 0;
#X connect 29 0 21 0;
#X connect 30 0 23 0;
#X connect 31 0 25 0;
#X connect 32 0 34 0;
#X connect 33 0 52 0;
#X connect 34 0 33 0;
#X connect 35 0 37 0;
#X connect 36 0 62 0;
#X connect 37 0 36 0;
#X connect 38 0 40 0;
#X connect 39 0 53 0;
#X connect 40 0 39 0;
#X connect 41 0 43 0;
#X connect 42 0 63 0;
#X connect 43 0 42 0;
#X connect 52 0 46 0;
#X connect 53 0 44 0;
#X connect 55 0 54 0;
#X connect 57 0 50 0;
#X connect 58 0 51 0;
#X connect 59 0 48 0;
#X connect 60 0 49 0;
#X connect 61 0 47 0;
#X connect 62 0 45 0;
#X connect 63 0 12 0;
#X connect 64 0 41 0;
#X connect 64 1 38 0;
#X connect 64 2 35 0;
#X connect 64 3 32 0;
#X connect 64 4 24 0;
#X connect 64 5 22 0;
#X connect 64 6 20 0;
#X connect 64 7 14 0;
#X connect 64 14 16 0;
#X connect 64 15 18 0;
#X connect 65 0 8 0;
#X connect 65 1 91 0;
#X connect 65 2 55 0;
#X connect 66 0 10 0;
#X connect 67 0 66 1;
#X connect 69 0 11 0;
#X connect 69 1 70 0;
#X connect 71 0 90 0;
#X connect 72 0 73 0;
#X connect 73 0 74 0;
#X connect 75 0 76 0;
#X connect 76 0 77 0;
#X connect 78 0 79 0;
#X connect 79 0 80 0;
#X connect 81 0 82 0;
#X connect 82 0 83 0;
#X connect 84 0 85 0;
#X connect 85 0 86 0;
#X connect 89 0 13 0;
#X connect 90 0 65 0;
#X connect 91 0 89 0;
#X restore 430 493 pd knobs-and-keys;
#N canvas 0 175 2736 1649 osc 1;
#X msg 1294 144 sendtyped /ascale f \$1;
#X msg 1505 141 sendtyped /linkpresent i \$1;
#X msg 1751 148 sendtyped /atrigen i \$1;
#X msg 293 135 sendtyped /midinote ii \$1 \$2;
#X msg 371 175 sendtyped /midicc ii \$1 \$2;
#X obj 367 47 inlet midiIn;
#X obj 710 811 outlet oscOut;
#X obj 367 69 route note ctl;
#X msg 780 386 sendtyped /knobs iiiiii \$1 \$2 \$3 \$4 \$5 0;
#X obj 653 134 r enc0;
#X obj 765 113 r enc1;
#X obj 931 115 r enc2;
#X obj 1060 91 r enc3;
#X obj 780 313 pack 0 0 0 0 0, f 58;
#X text 1040 386 4 Mode Params + 1 Background color;
#X msg 198 340 sendtyped /key ii 1 \$1;
#X obj 144 248 r but0;
#X obj 58 329 r but1;
#X text 339 338 Info Disp;
#X text 342 418 Auto-clear Toggle;
#X obj 117 322 r but2;
#X obj 87 377 &&;
#X obj 117 345 t b i;
#X obj 793 197 spigot 1;
#X obj 950 222 spigot 1;
#X obj 853 143 r but1;
#X obj 1007 177 r but2;
#X obj 765 136 t b i;
#X obj 931 138 t b i;
#X obj 1060 114 t b i;
#X obj 853 166 - 1;
#X obj 1007 200 - 1;
#X msg 1306 775 sendtyped /trig i \$1;
#N canvas 281 274 1463 722 shift-params 0;
#X obj 272 1 r shiftKey;
#X obj 375 106 == 0;
#X obj 401 141 s enableKnobs;
#X obj 205 332 spigot 0;
#X obj 198 415 i;
#X obj 566 423 i;
#X obj 566 377 * 16;
#X obj 566 399 + 1;
#X obj 566 353 / 1024;
#X obj 394 428 i;
#X obj 394 404 + 1;
#X obj 394 358 / 1024;
#X floatatom 582 457 5 0 0 0 - - -;
#X floatatom 421 459 5 0 0 0 - - -;
#X floatatom 213 446 5 0 0 0 - - -;
#X obj 882 395 textfile;
#X msg 1054 242 clear;
#X msg 833 259 add midiCh \$1;
#X msg 874 292 add trigSource \$1;
#X msg 905 321 add inputGain \$1;
#X obj 197 508 s inputGain;
#X obj 385 501 s trigSource;
#X obj 570 504 s midiCh;
#X obj 860 166 r midiCh;
#X obj 908 188 r trigSource;
#X obj 972 207 r inputGain;
#X obj 941 236 i 100;
#X obj 889 226 i 0;
#X obj 846 214 i 1;
#X obj 893 130 t b b b b;
#X obj 828 54 bng 15 250 50 0 empty empty empty 17 7 0 10 -262144 -1
-1;
#X obj 194 282 r knob1;
#X obj 388 330 spigot 0;
#X obj 555 320 spigot 0;
#X obj 379 290 r knob2;
#X obj 557 291 r knob3;
#N canvas 11 96 1581 708 shift-display 0;
#X msg 79 153 sendtyped /shift i \$1;
#X obj 387 421 s oscOut;
#X msg 268 159 send /sline 0 Input Gain \$1 %;
#X msg 952 302 send /sline 2 MIDI Channel \$1;
#X msg 550 317 send /sline 1 Trigger Source MIDI Notes;
#X msg 481 200 send /sline 1 Trigger Source Audio;
#X obj 239 76 r inputGain;
#X obj 451 67 r trigSource;
#X obj 858 66 r midiCh;
#X obj 77 48 inlet;
#X text 108 121 enable overlay;
#X msg 502 221 send /sline 1 Trigger Source LINK Quarter Note;
#X msg 516 242 send /sline 1 Trigger Source LINK Eighth Note;
#X msg 521 267 send /sline 1 Trigger Source MIDI Clock Quarter Note
;
#X msg 537 290 send /sline 1 Trigger Source MIDI Clock Eighth Note
;
#X obj 502 168 sel 1 2 3 4 5 6;
#X connect 0 0 1 0;
#X connect 2 0 1 0;
#X connect 3 0 1 0;
#X connect 4 0 1 0;
#X connect 5 0 1 0;
#X connect 6 0 2 0;
#X connect 7 0 15 0;
#X connect 8 0 3 0;
#X connect 9 0 0 0;
#X connect 11 0 1 0;
#X connect 12 0 1 0;
#X connect 13 0 1 0;
#X connect 14 0 1 0;
#X connect 15 0 5 0;
#X connect 15 1 11 0;
#X connect 15 2 12 0;
#X connect 15 3 13 0;
#X connect 15 4 14 0;
#X connect 15 5 4 0;
#X restore 68 168 pd shift-display;
#X obj 212 166 s enableShift;
#X obj 281 93 == 1;
#X obj 273 260 r enableShift;
#X obj 458 268 r enableShift;
#X obj 637 284 r enableShift;
#X obj 271 62 t f f f;
#X obj 282 119 t f f;
#X obj 330 156 sel 1 0;
#X obj 420 209 s saveShiftParams;
#X obj 253 213 s recallShiftParams;
#X obj 739 28 r saveShiftParams;
#X obj 827 76 t b b;
#X obj 1036 286 bng 15 250 50 0 empty empty empty 17 7 0 10 -262144
-1 -1;
#X obj 855 428 route inputGain trigSource midiCh;
#X floatatom 850 456 5 0 0 0 - - -;
#X floatatom 927 454 5 0 0 0 - - -;
#X floatatom 1008 453 5 0 0 0 - - -;
#X obj 1075 281 r recallShiftParams;
#X obj 811 494 s inputGain;
#X obj 902 492 s trigSource;
#X obj 1007 492 s midiCh;
#X obj 1048 322 t b b b b b;
#X msg 1027 360 rewind;
#X obj 266 30 change 0;
#X text 338 34 ignore first 0;
#X obj 198 369 / 1023;
#X obj 198 393 * 301;
#X obj 394 382 * 6;
#X msg 617 129 write ../system/shift-params.txt;
#X msg 1087 361 read ../system/shift-params.txt;
#X connect 0 0 60 0;
#X connect 1 0 2 0;
#X connect 3 0 62 0;
#X connect 4 0 14 0;
#X connect 4 0 20 0;
#X connect 5 0 12 0;
#X connect 5 0 22 0;
#X connect 6 0 7 0;
#X connect 7 0 5 0;
#X connect 8 0 6 0;
#X connect 9 0 13 0;
#X connect 9 0 21 0;
#X connect 10 0 9 0;
#X connect 11 0 64 0;
#X connect 15 0 50 0;
#X connect 16 0 15 0;
#X connect 17 0 15 0;
#X connect 18 0 15 0;
#X connect 19 0 15 0;
#X connect 23 0 28 1;
#X connect 24 0 27 1;
#X connect 25 0 26 1;
#X connect 26 0 19 0;
#X connect 27 0 18 0;
#X connect 28 0 17 0;
#X connect 29 0 28 0;
#X connect 29 1 27 0;
#X connect 29 2 26 0;
#X connect 29 3 16 0;
#X connect 30 0 48 0;
#X connect 31 0 3 0;
#X connect 32 0 11 0;
#X connect 33 0 8 0;
#X connect 34 0 32 0;
#X connect 35 0 33 0;
#X connect 38 0 43 0;
#X connect 39 0 3 1;
#X connect 40 0 32 1;
#X connect 41 0 33 1;
#X connect 42 0 36 0;
#X connect 42 1 38 0;
#X connect 42 2 1 0;
#X connect 43 0 37 0;
#X connect 43 1 44 0;
#X connect 44 0 46 0;
#X connect 44 1 45 0;
#X connect 47 0 48 0;
#X connect 48 0 65 0;
#X connect 48 1 29 0;
#X connect 49 0 58 0;
#X connect 50 0 51 0;
#X connect 50 1 52 0;
#X connect 50 2 53 0;
#X connect 51 0 55 0;
#X connect 52 0 56 0;
#X connect 53 0 57 0;
#X connect 54 0 58 0;
#X connect 58 0 15 0;
#X connect 58 1 15 0;
#X connect 58 2 15 0;
#X connect 58 3 59 0;
#X connect 58 4 66 0;
#X connect 59 0 15 0;
#X connect 60 0 42 0;
#X connect 62 0 63 0;
#X connect 63 0 4 0;
#X connect 64 0 10 0;
#X connect 65 0 15 0;
#X connect 66 0 15 0;
#X restore 609 102 pd shift-params;
#X msg 201 419 sendtyped /key ii 3 \$1;
#X text 347 576 Previous Mode;
#X text 348 616 Next Mode;
#X obj 66 460 r enc1;
#X obj 84 568 int 0;
#X obj 62 595 -;
#X obj 68 528 t i i b;
#X obj 62 618 > 0;
#X obj 62 641 route 0 1;
#X msg 208 578 sendtyped /key ii 4 1;
#X msg 210 618 sendtyped /key ii 5 1;
#X obj 129 460 r but1;
#X obj 79 501 spigot 0;
#X obj 101 810 int 0;
#X obj 79 837 -;
#X obj 85 770 t i i b;
#X obj 79 860 > 0;
#X obj 79 883 route 0 1;
#X obj 96 743 spigot 0;
#X obj 83 702 r enc2;
#X obj 146 702 r but2;
#X msg 225 820 sendtyped /key ii 6 1;
#X msg 227 860 sendtyped /key ii 7 1;
#X text 364 818 Previous Scene;
#X text 365 857 Next Scene;
#X obj 985 489 &&;
#X obj 1015 457 t b i;
#X text 992 541 Save or delete Scene;
#X msg 851 542 sendtyped /key ii 8 \$1;
#X obj 956 441 r but0;
#X obj 1015 434 r but1;
#X obj 1034 682 &&;
#X obj 1064 650 t b i;
#X obj 1005 634 r but0;
#X msg 900 735 sendtyped /key ii 9 \$1;
#X text 1041 734 Screenshot;
#X obj 1064 627 r but2;
#X msg 1359 201 sendtyped /shift i \$1;
#X obj 1291 706 &&;
#X obj 1255 642 r but2;
#X obj 1324 573 r but1;
#X obj 1324 596 - 1;
#X obj 1324 619 abs;
#X obj 1325 643 t b i;
#X obj 1456 691 &&;
#X obj 1420 627 r but2;
#X obj 1489 581 - 1;
#X obj 1489 604 abs;
#X obj 1490 628 t b i;
#X obj 1489 558 r but0;
#X obj 1379 742 &&;
#X obj 1454 716 t b i;
#X obj 1197 123 r but1;
#X obj 1147 164 spigot 0;
#X obj 1134 123 r enc3;
#X obj 1059 246 spigot 1;
#X obj 1116 224 - 1;
#X obj 1116 201 r but1;
#X connect 3 0 6 0;
#X connect 5 0 7 0;
#X connect 7 0 3 0;
#X connect 8 0 6 0;
#X connect 9 0 13 0;
#X connect 10 0 27 0;
#X connect 11 0 28 0;
#X connect 12 0 29 0;
#X connect 13 0 8 0;
#X connect 15 0 6 0;
#X connect 16 0 15 0;
#X connect 17 0 21 0;
#X connect 20 0 22 0;
#X connect 21 0 34 0;
#X connect 22 0 21 0;
#X connect 22 1 21 1;
#X connect 23 0 13 1;
#X connect 24 0 13 2;
#X connect 25 0 30 0;
#X connect 26 0 31 0;
#X connect 27 0 13 0;
#X connect 27 1 23 0;
#X connect 28 0 13 0;
#X connect 28 1 24 0;
#X connect 29 0 13 0;
#X connect 29 1 89 0;
#X connect 30 0 23 1;
#X connect 31 0 24 1;
#X connect 32 0 6 0;
#X connect 34 0 6 0;
#X connect 37 0 46 0;
#X connect 38 0 39 1;
#X connect 39 0 41 0;
#X connect 40 0 39 0;
#X connect 40 1 38 1;
#X connect 40 2 38 0;
#X connect 41 0 42 0;
#X connect 42 0 43 0;
#X connect 42 1 44 0;
#X connect 43 0 6 0;
#X connect 44 0 6 0;
#X connect 45 0 46 1;
#X connect 46 0 40 0;
#X connect 47 0 48 1;
#X connect 48 0 50 0;
#X connect 49 0 48 0;
#X connect 49 1 47 1;
#X connect 49 2 47 0;
#X connect 50 0 51 0;
#X connect 51 0 55 0;
#X connect 51 1 56 0;
#X connect 52 0 49 0;
#X connect 53 0 52 0;
#X connect 54 0 52 1;
#X connect 55 0 6 0;
#X connect 56 0 6 0;
#X connect 59 0 62 0;
#X connect 60 0 59 0;
#X connect 60 1 59 1;
#X connect 62 0 6 0;
#X connect 63 0 59 0;
#X connect 64 0 60 0;
#X connect 65 0 68 0;
#X connect 66 0 65 0;
#X connect 66 1 65 1;
#X connect 67 0 65 0;
#X connect 68 0 6 0;
#X connect 70 0 66 0;
#X connect 72 0 84 0;
#X connect 73 0 72 0;
#X connect 74 0 75 0;
#X connect 75 0 76 0;
#X connect 76 0 77 0;
#X connect 77 0 72 0;
#X connect 77 1 72 1;
#X connect 78 0 85 0;
#X connect 79 0 78 0;
#X connect 80 0 81 0;
#X connect 81 0 82 0;
#X connect 82 0 78 0;
#X connect 82 1 78 1;
#X connect 83 0 80 0;
#X connect 84 0 32 0;
#X connect 85 0 84 0;
#X connect 85 1 84 1;
#X connect 86 0 87 1;
#X connect 87 0 13 4;
#X connect 88 0 87 0;
#X connect 89 0 13 3;
#X connect 90 0 89 1;
#X connect 91 0 90 0;
#X restore 324 542 pd osc;
#X obj 963 622 s midiCh;
#X obj 953 590 int 2;
#X obj 324 600 s oscOut;
#X obj 935 529 t b b b b;
#X obj 854 271 change;
#X obj 854 295 * 1023;
#X obj 854 318 / 127;
#X obj 1056 273 change;
#X obj 1056 297 * 1023;
#X obj 1056 320 / 127;
#X obj 991 271 change;
#X obj 991 295 * 1023;
#X obj 991 318 / 127;
#X obj 922 271 change;
#X obj 922 295 * 1023;
#X obj 922 318 / 127;
#X obj 1407 55 r trigSource;
#X floatatom 1407 77 5 0 0 0 - - -;
#X floatatom 1409 130 5 0 0 0 - - -;
#X obj 1409 108 r midiCh;
#X floatatom 1409 181 5 0 0 0 - - -;
#X obj 1409 159 r inputGain;
#X text 1414 26 shift params;
#X obj 1228 306 r inputGain;
#X obj 1228 345 f;
#X obj 1228 377 / 100;
#X msg 1228 409 sendtyped /ascale f \$1;
#X obj 1306 506 s oscOut;
#X obj 1408 353 r link-session-present;
#X msg 1408 418 sendtyped /linkpresent i \$1;
#X obj 1408 388 i;
#X obj 1637 384 i;
#X msg 1637 414 sendtyped /atrigen i \$1;
#X obj 1637 342 r audioTrigEnable;
#X text 1409 279 there isn't a mechanism for this patch to know when
the video engine is ready to receive params \, so we just send them
every second...;
#X obj 1347 289 r ping;
#X obj 852 159 clip 1 126;
#X obj 937 101 t b f;
#X obj 937 128 f 0;
#X obj 937 187 +;
#X obj 937 157 clip 1 126;
#X obj 1022 101 t b f;
#X obj 1022 128 f 0;
#X obj 1022 187 +;
#X obj 1022 157 clip 1 126;
#X obj 1107 100 t b f;
#X obj 1107 127 f 0;
#X obj 1107 186 +;
#X obj 1107 156 clip 1 126;
#X connect 0 0 1 0;
#X connect 2 0 3 0;
#X connect 4 0 15 0;
#X connect 5 0 11 0;
#X connect 7 0 33 0;
#X connect 8 0 36 0;
#X connect 9 0 34 0;
#X connect 10 0 6 0;
#X connect 11 0 12 0;
#X connect 11 0 29 0;
#X connect 11 1 13 0;
#X connect 11 1 31 0;
#X connect 11 2 14 0;
#X connect 11 2 30 0;
#X connect 15 0 16 0;
#X connect 15 1 99 0;
#X connect 15 2 103 0;
#X connect 15 3 107 0;
#X connect 16 0 17 0;
#X connect 16 1 18 1;
#X connect 17 0 98 0;
#X connect 18 0 17 1;
#X connect 18 0 19 0;
#X connect 19 0 66 0;
#X connect 20 0 75 0;
#X connect 21 0 72 0;
#X connect 22 0 69 0;
#X connect 23 0 24 0;
#X connect 24 0 8 0;
#X connect 32 0 6 0;
#X connect 36 0 10 0;
#X connect 40 0 53 0;
#X connect 41 0 42 0;
#X connect 42 0 40 0;
#X connect 43 0 54 0;
#X connect 44 0 42 0;
#X connect 45 0 44 0;
#X connect 45 0 56 0;
#X connect 46 0 65 0;
#X connect 47 0 48 0;
#X connect 48 0 49 0;
#X connect 54 0 41 0;
#X connect 55 0 54 1;
#X connect 56 0 57 0;
#X connect 58 0 51 0;
#X connect 59 0 61 0;
#X connect 61 0 64 0;
#X connect 63 0 62 0;
#X connect 65 0 45 0;
#X connect 65 1 63 0;
#X connect 65 2 58 0;
#X connect 65 3 52 0;
#X connect 66 0 67 0;
#X connect 67 0 68 0;
#X connect 68 0 25 0;
#X connect 69 0 70 0;
#X connect 70 0 71 0;
#X connect 71 0 28 0;
#X connect 72 0 73 0;
#X connect 73 0 74 0;
#X connect 74 0 27 0;
#X connect 75 0 76 0;
#X connect 76 0 77 0;
#X connect 77 0 26 0;
#X connect 78 0 79 0;
#X connect 81 0 80 0;
#X connect 83 0 82 0;
#X connect 85 0 86 0;
#X connect 86 0 87 0;
#X connect 87 0 88 0;
#X connect 88 0 89 0;
#X connect 90 0 92 0;
#X connect 91 0 89 0;
#X connect 92 0 91 0;
#X connect 93 0 94 0;
#X connect 94 0 89 0;
#X connect 95 0 93 0;
#X connect 97 0 86 0;
#X connect 97 0 92 0;
#X connect 97 0 93 0;
#X connect 98 0 18 0;
#X connect 99 0 100 0;
#X connect 99 1 101 1;
#X connect 100 0 102 0;
#X connect 101 0 100 1;
#X connect 101 0 20 0;
#X connect 102 0 101 0;
#X connect 103 0 104 0;
#X connect 103 1 105 1;
#X connect 104 0 106 0;
#X connect 105 0 104 1;
#X connect 105 0 21 0;
#X connect 106 0 105 0;
#X connect 107 0 108 0;
#X connect 107 1 109 1;
#X connect 108 0 110 0;
#X connect 109 0 108 1;
#X connect 109 0 22 0;
#X connect 110 0 109 0;
